<svg width="20" height="20" viewBox="0 0 20 20" fill="none" xmlns="http://www.w3.org/2000/svg">
<path d="M17.8565 2.14891C17.4398 1.72307 16.8232 1.56557 16.2482 1.73224L2.83984 5.60641C2.23318 5.77474 1.80318 6.25557 1.68734 6.86557C1.56901 7.48724 1.98234 8.27724 2.52234 8.60724L6.71484 11.1672C7.14484 11.4306 7.69984 11.3647 8.05568 11.0081L12.8565 6.20724C13.0982 5.95641 13.4982 5.95641 13.7398 6.20724C13.9815 6.44807 13.9815 6.84057 13.7398 7.09057L8.93068 11.8914C8.57401 12.2481 8.50734 12.8014 8.76984 13.2322L11.3315 17.4406C11.6315 17.9397 12.1482 18.2239 12.7148 18.2239C12.7815 18.2239 12.8565 18.2239 12.9232 18.2147C13.5732 18.1322 14.0898 17.6897 14.2815 17.0647L18.2565 3.75724C18.4315 3.19057 18.2732 2.57391 17.8565 2.14891" fill="#1C1D22"/>
<path opacity="0.4" fill-rule="evenodd" clip-rule="evenodd" d="M2.50956 14.0066C2.34956 14.0066 2.18956 13.9458 2.06789 13.8233C1.82372 13.5791 1.82372 13.1841 2.06789 12.94L3.20539 11.8016C3.44956 11.5583 3.84539 11.5583 4.08956 11.8016C4.33289 12.0458 4.33289 12.4416 4.08956 12.6858L2.95122 13.8233C2.82956 13.9458 2.66956 14.0066 2.50956 14.0066ZM5.64389 15.0003C5.48389 15.0003 5.32389 14.9395 5.20222 14.817C4.95806 14.5728 4.95806 14.1778 5.20222 13.9336L6.33972 12.7953C6.58389 12.552 6.97972 12.552 7.22389 12.7953C7.46722 13.0395 7.46722 13.4353 7.22389 13.6795L6.08556 14.817C5.96389 14.9395 5.80389 15.0003 5.64389 15.0003ZM5.85531 17.9736C5.97697 18.0961 6.13697 18.157 6.29697 18.157C6.45697 18.157 6.61697 18.0961 6.73864 17.9736L7.87697 16.8361C8.12031 16.592 8.12031 16.1961 7.87697 15.952C7.63281 15.7086 7.23697 15.7086 6.99281 15.952L5.85531 17.0903C5.61114 17.3345 5.61114 17.7295 5.85531 17.9736Z" fill="#1C1D22"/>
</svg>
